<svg width="17" height="17" viewBox="0 0 17 17" fill="none" xmlns="http://www.w3.org/2000/svg">
<path d="M6.66667 1.66667V5H10V1.66667H6.66667ZM11.6667 1.66667V5H15V1.66667H11.6667ZM11.6667 6.66667V10H15V6.66667H11.6667ZM11.6667 11.6667V15H15V11.6667H11.6667ZM10 15V11.6667H6.66667V15H10ZM5 15V11.6667H1.66667V15H5ZM5 10V6.66667H1.66667V10H5ZM5 5V1.66667H1.66667V5H5ZM6.66667 10H10V6.66667H6.66667V10ZM1.66667 0H15C15.442 0 15.8659 0.175595 16.1785 0.488155C16.4911 0.800716 16.6667 1.22464 16.6667 1.66667V15C16.6667 15.442 16.4911 15.8659 16.1785 16.1785C15.8659 16.4911 15.442 16.6667 15 16.6667H1.66667C0.766667 16.6667 0 15.9167 0 15V1.66667C0 1.22464 0.175595 0.800716 0.488155 0.488155C0.800716 0.175595 1.22464 0 1.66667 0Z" fill="white"/>
</svg>
