<svg width="20" height="20" viewBox="0 0 20 20" fill="none" xmlns="http://www.w3.org/2000/svg">
<path d="M15.8331 7.57476V4.99976C15.8331 4.54142 15.4581 4.16642 14.9998 4.16642H12.4248L10.5831 2.32476C10.506 2.24751 10.4145 2.18622 10.3136 2.1444C10.2128 2.10258 10.1048 2.08105 9.99562 2.08105C9.88648 2.08105 9.77842 2.10258 9.6776 2.1444C9.57679 2.18622 9.48522 2.24751 9.40812 2.32476L7.56646 4.16642H4.99146C4.53312 4.16642 4.15812 4.54142 4.15812 4.99976V7.57476L2.31646 9.41643C2.2392 9.49352 2.17791 9.58509 2.1361 9.6859C2.09428 9.78672 2.07275 9.89478 2.07275 10.0039C2.07275 10.1131 2.09428 10.2211 2.1361 10.3219C2.17791 10.4228 2.2392 10.5143 2.31646 10.5914L4.15812 12.4331V15.0081C4.15812 15.4664 4.53312 15.8414 4.99146 15.8414H7.56646L9.40812 17.6831C9.57479 17.8498 9.78312 17.9248 9.99979 17.9248C10.2165 17.9248 10.4248 17.8414 10.5915 17.6831L12.4331 15.8414H15.0081C15.4665 15.8414 15.8415 15.4664 15.8415 15.0081V12.4331L17.6831 10.5914C17.7604 10.5143 17.8217 10.4228 17.8635 10.3219C17.9053 10.2211 17.9268 10.1131 17.9268 10.0039C17.9268 9.89478 17.9053 9.78672 17.8635 9.6859C17.8217 9.58509 17.7604 9.49352 17.6831 9.41643L15.8415 7.57476H15.8331ZM14.4081 11.4998C14.3309 11.5776 14.2698 11.67 14.2283 11.7715C14.1868 11.873 14.1658 11.9818 14.1665 12.0914V14.1748H12.0831C11.8581 14.1748 11.6498 14.2664 11.4915 14.4164L9.99979 15.9081L8.50812 14.4164C8.43026 14.3392 8.33791 14.2781 8.23638 14.2366C8.13485 14.1951 8.02613 14.1741 7.91646 14.1748H5.83312V12.0914C5.83312 11.8664 5.74146 11.6581 5.59146 11.4998L4.09979 10.0081L5.59146 8.51643C5.66869 8.43856 5.7298 8.34621 5.77127 8.24468C5.81274 8.14315 5.83376 8.03443 5.83312 7.92476V5.84143H7.91646C8.14146 5.84143 8.34979 5.74976 8.50812 5.59976L9.99979 4.10809L11.4915 5.59976C11.6498 5.75809 11.8581 5.84143 12.0831 5.84143H14.1665V7.92476C14.1665 8.14976 14.2581 8.35809 14.4081 8.51643L15.8998 10.0081L14.4081 11.4998Z" fill="white"/>
<path d="M9.16654 10.4912L8.09154 9.40788L6.9082 10.5912L9.16654 12.8412L13.0915 8.92454L11.9082 7.74121L9.16654 10.4912Z" fill="white"/>
</svg>
