<svg width="14" height="17" viewBox="0 0 14 17" fill="none" xmlns="http://www.w3.org/2000/svg">
<path d="M6.66667 0C7.58333 0 8.33333 0.75 8.33333 1.66667C8.33333 2.58333 7.58333 3.33333 6.66667 3.33333C5.75 3.33333 5 2.58333 5 1.66667C5 0.75 5.75 0 6.66667 0ZM9.91667 5.08333C9.58333 4.75 9 4.16667 7.91667 4.16667H5.83333C3.5 4.16667 1.66667 2.33333 1.66667 0H0C0 2.66667 1.75 4.83333 4.16667 5.58333V16.6667H5.83333V11.6667H7.5V16.6667H9.16667V6.75L12.5 10L13.6667 8.83333L9.91667 5.08333Z" fill="white"/>
</svg>
