<svg width="17" height="19" viewBox="0 0 17 19" fill="none" xmlns="http://www.w3.org/2000/svg">
<path d="M0.75 7.76417C0.75 5.09917 0.75 3.76667 1.065 3.31833C1.37917 2.87083 2.63167 2.44167 5.1375 1.58417L5.615 1.42083C6.92083 0.973333 7.57333 0.75 8.25 0.75C8.92667 0.75 9.57917 0.973333 10.885 1.42083L11.3625 1.58417C13.8683 2.44167 15.1208 2.87083 15.435 3.31833C15.75 3.76667 15.75 5.1 15.75 7.76417V9.07583C15.75 13.7742 12.2175 16.055 10.0008 17.0225C9.4 17.285 9.1 17.4167 8.25 17.4167C7.4 17.4167 7.1 17.285 6.49917 17.0225C4.2825 16.0542 0.75 13.775 0.75 9.07583V7.76417Z" stroke="white" stroke-width="1.5"/>
<path d="M6.1665 9.41699L7.35734 10.7503L10.3332 7.41699" stroke="white" stroke-width="1.5" stroke-linecap="round" stroke-linejoin="round"/>
</svg>
