<svg width="17" height="17" viewBox="0 0 17 17" fill="none" xmlns="http://www.w3.org/2000/svg">
<path d="M5.75 15.75H10.75M5.75 15.75V11.5833M5.75 15.75H1.25C1.11739 15.75 0.990215 15.6973 0.896447 15.6036C0.802678 15.5098 0.75 15.3826 0.75 15.25V12.0833C0.75 11.9507 0.802678 11.8235 0.896447 11.7298C0.990215 11.636 1.11739 11.5833 1.25 11.5833H5.75M10.75 15.75V5.75M10.75 15.75H15.25C15.3826 15.75 15.5098 15.6973 15.6036 15.6036C15.6973 15.5098 15.75 15.3826 15.75 15.25V1.25C15.75 1.11739 15.6973 0.990215 15.6036 0.896447C15.5098 0.802678 15.3826 0.75 15.25 0.75H11.25C11.1174 0.75 10.9902 0.802678 10.8964 0.896447C10.8027 0.990215 10.75 1.11739 10.75 1.25V5.75M5.75 11.5833V6.25C5.75 6.11739 5.80268 5.99021 5.89645 5.89645C5.99021 5.80268 6.11739 5.75 6.25 5.75H10.75" stroke="white" stroke-width="1.5"/>
</svg>
