<svg width="16" height="16" viewBox="0 0 16 16" fill="none" xmlns="http://www.w3.org/2000/svg">
<g clip-path="url(#clip0_54609_23840)">
<path d="M8 16C8.73438 16 9.44271 15.9062 10.125 15.7188C10.8073 15.5312 11.4453 15.263 12.0391 14.9141C12.6328 14.5651 13.1719 14.1484 13.6562 13.6641C14.1406 13.1797 14.5573 12.638 14.9062 12.0391C15.2552 11.4401 15.5234 10.8021 15.7109 10.125C15.8984 9.44792 15.9948 8.73958 16 8C16 7.26562 15.9062 6.55729 15.7188 5.875C15.5312 5.19271 15.263 4.55469 14.9141 3.96094C14.5651 3.36719 14.1484 2.82812 13.6641 2.34375C13.1797 1.85938 12.638 1.44271 12.0391 1.09375C11.4401 0.744792 10.8021 0.476562 10.125 0.289062C9.44792 0.101562 8.73958 0.00520802 8 0C7.26562 0 6.55729 0.09375 5.875 0.28125C5.19271 0.46875 4.55469 0.736979 3.96094 1.08594C3.36719 1.4349 2.82812 1.85156 2.34375 2.33594C1.85938 2.82031 1.44271 3.36198 1.09375 3.96094C0.744792 4.5599 0.476562 5.19531 0.289062 5.86719C0.101562 6.53906 0.00520833 7.25 0 8C0 8.73438 0.09375 9.44271 0.28125 10.125C0.46875 10.8073 0.736979 11.4453 1.08594 12.0391C1.4349 12.6328 1.85156 13.1719 2.33594 13.6562C2.82031 14.1406 3.36198 14.5573 3.96094 14.9062C4.5599 15.2552 5.19531 15.5234 5.86719 15.7109C6.53906 15.8984 7.25 15.9948 8 16ZM8 1C8.64062 1 9.25781 1.08333 9.85156 1.25C10.4453 1.41667 11.0026 1.65104 11.5234 1.95312C12.0443 2.25521 12.5182 2.6224 12.9453 3.05469C13.3724 3.48698 13.737 3.95833 14.0391 4.46875C14.3411 4.97917 14.5781 5.53646 14.75 6.14062C14.9219 6.74479 15.0052 7.36458 15 8C15 8.64062 14.9167 9.25781 14.75 9.85156C14.5833 10.4453 14.349 11.0026 14.0469 11.5234C13.7448 12.0443 13.3776 12.5182 12.9453 12.9453C12.513 13.3724 12.0417 13.737 11.5312 14.0391C11.0208 14.3411 10.4635 14.5781 9.85938 14.75C9.25521 14.9219 8.63542 15.0052 8 15C7.35938 15 6.74219 14.9167 6.14844 14.75C5.55469 14.5833 4.9974 14.349 4.47656 14.0469C3.95573 13.7448 3.48177 13.3776 3.05469 12.9453C2.6276 12.513 2.26302 12.0417 1.96094 11.5312C1.65885 11.0208 1.42188 10.4635 1.25 9.85938C1.07812 9.25521 0.994792 8.63542 1 8C1 7.35938 1.08333 6.74219 1.25 6.14844C1.41667 5.55469 1.65104 4.9974 1.95312 4.47656C2.25521 3.95573 2.6224 3.48177 3.05469 3.05469C3.48698 2.6276 3.95833 2.26302 4.46875 1.96094C4.97917 1.65885 5.53646 1.42188 6.14062 1.25C6.74479 1.07812 7.36458 0.994792 8 1ZM12.1484 8.85156L12.8516 8.14844L8.00781 3.28906L3.14844 8.14844L3.85156 8.85156L7.50781 5.20312L7.5 13H8.5L8.50781 5.21094L12.1484 8.85156Z" fill="white"/>
</g>
<defs>
<clipPath id="clip0_54609_23840">
<rect width="16" height="16" fill="white" transform="matrix(1 0 0 -1 0 16)"/>
</clipPath>
</defs>
</svg>
