<svg width="22" height="18" viewBox="0 0 22 18" fill="none" xmlns="http://www.w3.org/2000/svg">
<path d="M21 17V1H1V17H21Z" stroke="#DFDFDF" stroke-width="2" stroke-linecap="square"/>
<path d="M5 7H7.5M5 11H7.5M11.5 12.5C11.5 11.7044 11.8161 10.9413 12.3787 10.3787C12.9413 9.81607 13.7044 9.5 14.5 9.5M14.5 9.5C15.2956 9.5 16.0587 9.81607 16.6213 10.3787C17.1839 10.9413 17.5 11.7044 17.5 12.5M14.5 9.5C15.0304 9.5 15.5391 9.28929 15.9142 8.91421C16.2893 8.53914 16.5 8.03043 16.5 7.5C16.5 6.96957 16.2893 6.46086 15.9142 6.08579C15.5391 5.71071 15.0304 5.5 14.5 5.5C13.9696 5.5 13.4609 5.71071 13.0858 6.08579C12.7107 6.46086 12.5 6.96957 12.5 7.5C12.5 8.03043 12.7107 8.53914 13.0858 8.91421C13.4609 9.28929 13.9696 9.5 14.5 9.5Z" stroke="#DFDFDF" stroke-width="2" stroke-linecap="square"/>
</svg>
