<svg width="20" height="12" viewBox="0 0 20 12" fill="none" xmlns="http://www.w3.org/2000/svg">
<path d="M15.8333 10V11.6667H5.83333V10C5.83333 10 5.83333 6.66667 10.8333 6.66667C15.8333 6.66667 15.8333 10 15.8333 10ZM13.3333 2.5C13.3333 2.00555 13.1867 1.5222 12.912 1.11108C12.6373 0.699952 12.2469 0.379521 11.79 0.190302C11.3332 0.00108322 10.8306 -0.0484251 10.3456 0.0480379C9.86065 0.144501 9.4152 0.382603 9.06557 0.732234C8.71593 1.08187 8.47783 1.52732 8.38137 2.01228C8.28491 2.49723 8.33442 2.99989 8.52363 3.45671C8.71285 3.91352 9.03328 4.30397 9.44441 4.57867C9.85553 4.85338 10.3389 5 10.8333 5C11.4964 5 12.1323 4.73661 12.6011 4.26777C13.0699 3.79893 13.3333 3.16304 13.3333 2.5ZM16 6.71667C16.4555 7.13692 16.8228 7.6437 17.0803 8.20743C17.3379 8.77116 17.4805 9.38054 17.5 10V11.6667H20V10C20 10 20 7.125 16 6.71667ZM15 9.51252e-07C14.7482 1.55845e-05 14.498 0.0393793 14.2583 0.116668C14.7459 0.815809 15.0073 1.64765 15.0073 2.5C15.0073 3.35235 14.7459 4.18419 14.2583 4.88333C14.498 4.96062 14.7482 4.99999 15 5C15.663 5 16.2989 4.73661 16.7678 4.26777C17.2366 3.79893 17.5 3.16304 17.5 2.5C17.5 1.83696 17.2366 1.20108 16.7678 0.732234C16.2989 0.263393 15.663 9.51252e-07 15 9.51252e-07ZM6.66667 4.16667H4.16667V1.66667H2.5V4.16667H0V5.83333H2.5V8.33333H4.16667V5.83333H6.66667V4.16667Z" fill="white"/>
</svg>
