<svg width="20" height="20" viewBox="0 0 20 20" fill="none" xmlns="http://www.w3.org/2000/svg">
<path d="M4.1665 15.8329H7.49984M12.4998 15.8329H15.8332M10.0307 12.1796V7.19457L14.1665 4.94957M10.0582 7.1679L5.86817 4.94957M9.99984 2.49707L14.194 4.91874V9.76207L9.99984 12.1829L5.80567 9.76124V4.91874L9.99984 2.49707ZM11.6665 15.8329C11.6665 16.2749 11.4909 16.6989 11.1783 17.0114C10.8658 17.324 10.4419 17.4996 9.99984 17.4996C9.55781 17.4996 9.13389 17.324 8.82133 17.0114C8.50877 16.6989 8.33317 16.2749 8.33317 15.8329C8.33317 15.3909 8.50877 14.967 8.82133 14.6544C9.13389 14.3418 9.55781 14.1662 9.99984 14.1662C10.4419 14.1662 10.8658 14.3418 11.1783 14.6544C11.4909 14.967 11.6665 15.3909 11.6665 15.8329Z" stroke="white" stroke-width="2" stroke-linecap="round"/>
</svg>
