<svg width="15" height="17" viewBox="0 0 15 17" fill="none" xmlns="http://www.w3.org/2000/svg">
<path d="M1.66667 16.6667C1.20833 16.6667 0.816111 16.5036 0.49 16.1775C0.163889 15.8514 0.000555556 15.4589 0 15V3.33333C0 2.875 0.163333 2.48278 0.49 2.15667C0.816667 1.83056 1.20889 1.66722 1.66667 1.66667H5.16667C5.34722 1.16667 5.64944 0.763889 6.07333 0.458333C6.49722 0.152778 6.97278 0 7.5 0C8.02722 0 8.50306 0.152778 8.9275 0.458333C9.35194 0.763889 9.65389 1.16667 9.83333 1.66667H13.3333C13.7917 1.66667 14.1842 1.83 14.5108 2.15667C14.8375 2.48333 15.0006 2.87556 15 3.33333V15C15 15.4583 14.8369 15.8508 14.5108 16.1775C14.1847 16.5042 13.7922 16.6672 13.3333 16.6667H1.66667ZM3.33333 13.3333H9.16667V11.6667H3.33333V13.3333ZM3.33333 10H11.6667V8.33333H3.33333V10ZM3.33333 6.66667H11.6667V5H3.33333V6.66667ZM7.94833 2.53167C8.06611 2.41333 8.125 2.26389 8.125 2.08333C8.125 1.90278 8.06583 1.75361 7.9475 1.63583C7.82917 1.51806 7.68 1.45889 7.5 1.45833C7.32 1.45778 7.17083 1.51694 7.0525 1.63583C6.93417 1.75472 6.875 1.90389 6.875 2.08333C6.875 2.26278 6.93417 2.41222 7.0525 2.53167C7.17083 2.65111 7.32 2.71 7.5 2.70833C7.68 2.70667 7.82944 2.64833 7.94833 2.53167Z" fill="white"/>
</svg>
