<svg width="16" height="16" viewBox="0 0 16 16" fill="none" xmlns="http://www.w3.org/2000/svg">
<path d="M10.466 3.057C10.4178 3.1804 10.3226 3.27961 10.2013 3.33286C10.0799 3.38611 9.94247 3.38904 9.819 3.341C8.74937 2.92331 7.56859 2.88644 6.47498 3.23658C5.38138 3.58672 4.44158 4.30254 3.81345 5.2638C3.18532 6.22505 2.90712 7.37319 3.02559 8.51535C3.14405 9.65751 3.65196 10.7241 4.464 11.536C4.51176 11.5821 4.54985 11.6373 4.57605 11.6983C4.60226 11.7593 4.61605 11.8249 4.61663 11.8913C4.6172 11.9577 4.60455 12.0235 4.57941 12.085C4.55427 12.1464 4.51714 12.2023 4.4702 12.2492C4.42325 12.2961 4.36742 12.3333 4.30598 12.3584C4.24453 12.3836 4.17869 12.3962 4.1123 12.3956C4.04591 12.395 3.9803 12.3813 3.9193 12.3551C3.8583 12.3288 3.80312 12.2908 3.757 12.243C2.78143 11.2692 2.17091 9.98916 2.02811 8.61815C1.8853 7.24714 2.21891 5.86877 2.97285 4.71481C3.72679 3.56084 4.85507 2.70166 6.16797 2.28174C7.48088 1.86181 8.89833 1.90675 10.182 2.409C10.2432 2.43287 10.2991 2.46857 10.3465 2.51407C10.394 2.55956 10.4319 2.61395 10.4583 2.67414C10.4847 2.73432 10.4989 2.79911 10.5003 2.8648C10.5016 2.9305 10.4899 2.99581 10.466 3.057ZM12.944 5.534C13.0676 5.48602 13.2052 5.48909 13.3265 5.54253C13.4478 5.59598 13.543 5.69542 13.591 5.819C14.0146 6.90498 14.1127 8.09084 13.8733 9.23168C13.634 10.3725 13.0674 11.4189 12.243 12.243C12.1969 12.2908 12.1417 12.3288 12.0807 12.3551C12.0197 12.3813 11.9541 12.395 11.8877 12.3956C11.8213 12.3962 11.7555 12.3836 11.694 12.3584C11.6326 12.3333 11.5767 12.2961 11.5298 12.2492C11.4829 12.2023 11.4457 12.1464 11.4206 12.085C11.3954 12.0235 11.3828 11.9577 11.3834 11.8913C11.384 11.8249 11.3977 11.7593 11.4239 11.6983C11.4502 11.6373 11.4882 11.5821 11.536 11.536C12.2231 10.8492 12.6952 9.97703 12.8947 9.0262C13.0941 8.07537 13.0122 7.08704 12.659 6.182C12.6351 6.12081 12.6234 6.0555 12.6247 5.9898C12.6261 5.92411 12.6403 5.85932 12.6667 5.79914C12.6931 5.73895 12.731 5.68456 12.7785 5.63907C12.8259 5.59357 12.8818 5.55787 12.943 5.534M12.084 3.819C11.9958 3.7439 11.8843 3.70174 11.7685 3.69973C11.6527 3.69773 11.5397 3.736 11.449 3.808L11.272 3.948C10.6335 4.45601 9.9968 4.96634 9.362 5.479C8.83 5.91 8.284 6.356 7.849 6.721C7.631 6.903 7.439 7.067 7.289 7.199C7.16793 7.30142 7.05306 7.41094 6.945 7.527C6.81709 7.67684 6.71995 7.8504 6.65912 8.03778C6.59829 8.22516 6.57496 8.42269 6.59047 8.61909C6.60598 8.81548 6.66002 9.0069 6.7495 9.18241C6.83898 9.35792 6.96216 9.51409 7.112 9.642C7.26184 9.76991 7.4354 9.86705 7.62278 9.92788C7.81016 9.98871 8.00769 10.012 8.20409 9.99653C8.40048 9.98102 8.5919 9.92698 8.76741 9.8375C8.94292 9.74802 9.09909 9.62484 9.227 9.475C9.299 9.391 9.397 9.243 9.497 9.085C9.604 8.915 9.736 8.7 9.882 8.457C10.174 7.969 10.528 7.361 10.871 6.767C11.2782 6.05998 11.6825 5.35131 12.084 4.641L12.195 4.445C12.2521 4.34409 12.2723 4.22647 12.2523 4.11227C12.2322 3.99808 12.1731 3.89441 12.085 3.819M8 16C10.1217 16 12.1566 15.1571 13.6569 13.6569C15.1571 12.1566 16 10.1217 16 8C16 5.87827 15.1571 3.84344 13.6569 2.34315C12.1566 0.842855 10.1217 0 8 0C5.87827 0 3.84344 0.842855 2.34315 2.34315C0.842855 3.84344 0 5.87827 0 8C0 10.1217 0.842855 12.1566 2.34315 13.6569C3.84344 15.1571 5.87827 16 8 16ZM8 15C7.08075 15 6.1705 14.8189 5.32122 14.4672C4.47194 14.1154 3.70026 13.5998 3.05025 12.9497C2.40024 12.2997 1.88463 11.5281 1.53284 10.6788C1.18106 9.8295 1 8.91925 1 8C1 7.08075 1.18106 6.1705 1.53284 5.32122C1.88463 4.47194 2.40024 3.70026 3.05025 3.05025C3.70026 2.40024 4.47194 1.88463 5.32122 1.53284C6.1705 1.18106 7.08075 1 8 1C9.85652 1 11.637 1.7375 12.9497 3.05025C14.2625 4.36301 15 6.14348 15 8C15 9.85652 14.2625 11.637 12.9497 12.9497C11.637 14.2625 9.85652 15 8 15Z" fill="white"/>
</svg>
