<svg width="20" height="20" viewBox="0 0 20 20" fill="none" xmlns="http://www.w3.org/2000/svg">
<path d="M10 14.375C9.13471 14.375 8.28885 14.1184 7.56938 13.6377C6.84992 13.157 6.28916 12.4737 5.95803 11.6742C5.6269 10.8748 5.54026 9.99515 5.70907 9.14648C5.87788 8.29781 6.29456 7.51826 6.90641 6.90641C7.51826 6.29456 8.29781 5.87788 9.14648 5.70907C9.99515 5.54026 10.8748 5.6269 11.6742 5.95803C12.4737 6.28916 13.157 6.84992 13.6377 7.56938C14.1184 8.28885 14.375 9.13471 14.375 10C14.3733 11.1598 13.9119 12.2717 13.0918 13.0918C12.2717 13.9119 11.1598 14.3733 10 14.375ZM10 6.875C9.38194 6.875 8.77775 7.05828 8.26384 7.40166C7.74994 7.74504 7.3494 8.2331 7.11288 8.80412C6.87635 9.37514 6.81447 10.0035 6.93505 10.6097C7.05563 11.2159 7.35325 11.7727 7.79029 12.2097C8.22733 12.6467 8.78415 12.9444 9.39034 13.065C9.99654 13.1855 10.6249 13.1236 11.1959 12.8871C11.7669 12.6506 12.255 12.2501 12.5983 11.7362C12.9417 11.2223 13.125 10.6181 13.125 10C13.124 9.1715 12.7945 8.37723 12.2086 7.79139C11.6228 7.20555 10.8285 6.87599 10 6.875Z" fill="white"/>
<path d="M18.75 4.00875L17.8663 3.125L15.7725 5.21875C15.4738 4.85811 15.1419 4.52624 14.7812 4.2275L16.875 2.13375L15.9913 1.25L13.735 3.50625C12.3075 2.68164 10.6478 2.3512 9.01329 2.56619C7.37882 2.78118 5.86099 3.52958 4.69529 4.69529C3.52958 5.86099 2.78118 7.37882 2.56619 9.01329C2.3512 10.6478 2.68164 12.3075 3.50625 13.735L1.25 15.9913L2.13375 16.875L4.2275 14.7812C4.52624 15.1419 4.85811 15.4738 5.21875 15.7725L3.125 17.8663L4.00875 18.75L6.265 16.4937C7.6925 17.3184 9.35223 17.6488 10.9867 17.4338C12.6212 17.2188 14.139 16.4704 15.3047 15.3047C16.4704 14.139 17.2188 12.6212 17.4338 10.9867C17.6488 9.35223 17.3184 7.6925 16.4937 6.265L18.75 4.00875ZM10 16.25C8.76387 16.25 7.55549 15.8834 6.52769 15.1967C5.49988 14.5099 4.6988 13.5338 4.22575 12.3918C3.75271 11.2497 3.62893 9.99307 3.87009 8.78069C4.11125 7.5683 4.7065 6.45466 5.58058 5.58058C6.45466 4.7065 7.5683 4.11125 8.78069 3.87009C9.99307 3.62893 11.2497 3.75271 12.3918 4.22575C13.5338 4.6988 14.5099 5.49988 15.1967 6.52769C15.8834 7.55549 16.25 8.76387 16.25 10C16.2483 11.6571 15.5893 13.2458 14.4176 14.4176C13.2458 15.5893 11.6571 16.2483 10 16.25Z" fill="white"/>
</svg>
