<svg width="20" height="20" viewBox="0 0 20 20" fill="none" xmlns="http://www.w3.org/2000/svg">
<g clip-path="url(#clip0_54609_23808)">
<path d="M9.99984 19.1663C5.369 18.1372 1.6665 13.768 1.6665 9.16634V4.16634L9.99984 0.833008L18.3332 4.16634V9.16634C18.3332 13.7697 14.6307 18.1372 9.99984 19.1663ZM3.33317 4.99967V9.16634C3.38079 11.0931 4.05847 12.9512 5.26249 14.4562C6.4665 15.9612 8.13051 17.0303 9.99984 17.4997C11.8692 17.0303 13.5332 15.9612 14.7372 14.4562C15.9412 12.9512 16.6189 11.0931 16.6665 9.16634V4.99967L9.99984 2.49967L3.33317 4.99967Z" fill="white"/>
<path d="M9.99984 9.16667C11.1504 9.16667 12.0832 8.23393 12.0832 7.08333C12.0832 5.93274 11.1504 5 9.99984 5C8.84924 5 7.9165 5.93274 7.9165 7.08333C7.9165 8.23393 8.84924 9.16667 9.99984 9.16667Z" fill="white"/>
<path d="M5.8335 12.5C6.2441 13.2486 6.84632 13.8746 7.57848 14.3139C8.31063 14.7532 9.14639 14.99 10.0002 15C10.8539 14.99 11.6897 14.7532 12.4218 14.3139C13.154 13.8746 13.7562 13.2486 14.1668 12.5C14.146 10.92 11.3818 10 10.0002 10C8.611 10 5.85433 10.92 5.8335 12.5Z" fill="white"/>
</g>
<defs>
<clipPath id="clip0_54609_23808">
<rect width="20" height="20" fill="white"/>
</clipPath>
</defs>
</svg>
