<svg width="17" height="16" viewBox="0 0 17 16" fill="none" xmlns="http://www.w3.org/2000/svg">
<path d="M1.66667 0C0.741667 0 0 0.741667 0 1.66667V10C0 10.442 0.175595 10.8659 0.488155 11.1785C0.800716 11.4911 1.22464 11.6667 1.66667 11.6667H8.33333V15.8333L10.8333 13.3333L13.3333 15.8333V11.6667H15C15.442 11.6667 15.8659 11.4911 16.1785 11.1785C16.4911 10.8659 16.6667 10.442 16.6667 10V1.66667C16.6667 1.22464 16.4911 0.800716 16.1785 0.488155C15.8659 0.175595 15.442 0 15 0H1.66667ZM8.33333 1.66667L10.8333 3.33333L13.3333 1.66667V4.58333L15.8333 5.83333L13.3333 7.08333V10L10.8333 8.33333L8.33333 10V7.08333L5.83333 5.83333L8.33333 4.58333V1.66667ZM1.66667 1.66667H5.83333V3.33333H1.66667V1.66667ZM1.66667 5H4.16667V6.66667H1.66667V5ZM1.66667 8.33333H5.83333V10H1.66667V8.33333Z" fill="white"/>
</svg>
