<svg width="17" height="18" viewBox="0 0 17 18" fill="none" xmlns="http://www.w3.org/2000/svg">
<path d="M7.66667 3.5C10.2011 3.56529 12.6783 2.73959 14.6667 1.16667C14.7905 1.07381 14.9377 1.01727 15.0918 1.00337C15.246 0.989469 15.4009 1.01877 15.5393 1.08798C15.6778 1.15719 15.7942 1.26358 15.8755 1.39522C15.9569 1.52687 16 1.67857 16 1.83333V11.8333C16 11.9881 15.9569 12.1398 15.8755 12.2714C15.7942 12.4031 15.6778 12.5095 15.5393 12.5787C15.4009 12.6479 15.246 12.6772 15.0918 12.6633C14.9377 12.6494 14.7905 12.5929 14.6667 12.5C12.6783 10.9271 10.2011 10.1014 7.66667 10.1667H2.66667C2.22464 10.1667 1.80072 9.99107 1.48816 9.67851C1.17559 9.36595 1 8.94203 1 8.5V5.16667C1 4.72464 1.17559 4.30072 1.48816 3.98816C1.80072 3.67559 2.22464 3.5 2.66667 3.5H7.66667Z" stroke="white" stroke-width="2" stroke-linecap="round" stroke-linejoin="round"/>
<path d="M3.5 10.1667C3.5 12.3304 4.20178 14.4357 5.5 16.1667C5.76522 16.5203 6.16005 16.7541 6.59763 16.8166C7.03522 16.8791 7.47971 16.7652 7.83333 16.5C8.18696 16.2348 8.42074 15.84 8.48325 15.4024C8.54576 14.9648 8.43188 14.5203 8.16667 14.1667C7.30119 13.0127 6.83333 11.6091 6.83333 10.1667M5.16667 3.5V10.1667" stroke="white" stroke-width="2" stroke-linecap="round" stroke-linejoin="round"/>
</svg>
