<svg width="19" height="18" viewBox="0 0 19 18" fill="none" xmlns="http://www.w3.org/2000/svg">
<path d="M11.4582 3.125H15.2082C15.9873 3.125 16.3765 3.125 16.6665 3.2925C16.8565 3.40221 17.0143 3.55999 17.124 3.75C17.2915 4.04 17.2915 4.42917 17.2915 5.20833C17.2915 5.9875 17.2915 6.37667 17.124 6.66667C17.0143 6.85668 16.8565 7.01446 16.6665 7.12417C16.3765 7.29167 15.9873 7.29167 15.2082 7.29167H11.4582M9.7915 10.625H15.2082C15.9873 10.625 16.3765 10.625 16.6665 10.7925C16.8565 10.9022 17.0143 11.06 17.124 11.25C17.2915 11.54 17.2915 11.9292 17.2915 12.7083C17.2915 13.4875 17.2915 13.8767 17.124 14.1667C17.0143 14.3567 16.8565 14.5145 16.6665 14.6242C16.3765 14.7917 15.9873 14.7917 15.2082 14.7917H9.7915" stroke="white" stroke-width="1.5" stroke-linecap="round" stroke-linejoin="round"/>
<path d="M6.45833 8.61167L6.20833 8.03917C6.09693 8.08779 6.00211 8.16784 5.93551 8.26953C5.8689 8.37121 5.8334 8.49011 5.83333 8.61167H6.45833ZM3.125 8.61167H3.75C3.74994 8.49011 3.71443 8.37121 3.64782 8.26953C3.58122 8.16784 3.48641 8.08779 3.375 8.03917L3.125 8.61167ZM0.625 4.79167H1.25C1.25 3.85236 1.62314 2.95152 2.28733 2.28733C2.95152 1.62314 3.85236 1.25 4.79167 1.25V0C3.52084 0 2.30206 0.504835 1.40345 1.40345C0.504835 2.30206 7.8096e-08 3.52084 7.8096e-08 4.79167H0.625ZM4.79167 0.625V1.25C5.73098 1.25 6.63181 1.62314 7.296 2.28733C7.96019 2.95152 8.33333 3.85236 8.33333 4.79167H9.58333C9.58333 3.52084 9.0785 2.30206 8.17989 1.40345C7.28127 0.504835 6.0625 0 4.79167 0V0.625ZM6.70833 10.9283L6.18833 11.275L6.21083 11.3083L6.73083 10.9617L7.25083 10.615L7.22833 10.5817L6.70833 10.9283ZM5.97 16.4583L6.41167 16.9L6.94333 16.3683L6.50167 15.9267L6.06 15.485L5.52833 16.0167L5.97 16.4583ZM6.62167 12.6975L7.12167 13.0725L7.185 12.9875L6.685 12.6125L6.185 12.2375L6.12167 12.3225L6.62167 12.6975ZM6.62167 14.2433L7.12167 13.8683C7.05144 13.7776 6.98391 13.6847 6.91917 13.59C6.8825 13.5333 6.88167 13.5217 6.88417 13.53L6.285 13.71L5.68667 13.89C5.76917 14.1642 5.95583 14.3975 6.12167 14.6183L6.62167 14.2433ZM6.62167 12.6975L6.12167 12.3225C5.95583 12.5425 5.76917 12.7767 5.68667 13.05L6.285 13.23L6.88417 13.41C6.88167 13.4183 6.8825 13.4067 6.91917 13.3508C6.96 13.2883 7.01917 13.2092 7.12167 13.0725L6.62167 12.6975ZM6.285 13.71L6.88417 13.53C6.8724 13.4909 6.8724 13.4491 6.88417 13.41L6.285 13.23L5.68667 13.05C5.60411 13.3242 5.60411 13.6166 5.68667 13.8908L6.285 13.71ZM3.61333 16.4583L3.17167 16.9C3.43667 17.1658 3.67917 17.41 3.9025 17.58C4.14 17.7617 4.4275 17.9167 4.79167 17.9167V16.6667H4.78917L4.78083 16.6625C4.7379 16.6422 4.6976 16.6167 4.66083 16.5867C4.51917 16.4783 4.345 16.3067 4.055 16.0167L3.61333 16.4583ZM5.97 16.4583L5.52833 16.0167C5.23833 16.3067 5.06417 16.4792 4.9225 16.5867C4.8826 16.619 4.83861 16.6459 4.79167 16.6667V17.9167C5.15583 17.9167 5.44333 17.7617 5.68083 17.58C5.90417 17.41 6.14667 17.1658 6.41167 16.9L5.97 16.4583ZM3.125 15.28H2.5C2.5 15.5692 2.48917 15.8883 2.61083 16.1833L3.18833 15.9442L3.76583 15.705V15.7033L3.76333 15.6958L3.75583 15.635C3.74969 15.5168 3.74774 15.3984 3.75 15.28H3.125ZM3.61333 16.4583L4.055 16.0167C3.96977 15.9343 3.8875 15.849 3.80833 15.7608L3.77083 15.7125L3.76667 15.7058L3.76583 15.705L3.18833 15.9442L2.61083 16.1833C2.73333 16.4775 2.96667 16.6958 3.17083 16.9L3.61333 16.4583ZM6.73 10.9625L6.21083 11.3083C6.32833 11.4858 6.39667 11.5883 6.44083 11.6683C6.48083 11.74 6.47833 11.7542 6.4775 11.7442L7.09583 11.6525L7.71417 11.5608C7.68414 11.3847 7.6229 11.2154 7.53333 11.0608C7.44482 10.9085 7.3503 10.7598 7.25 10.615L6.73 10.9625ZM6.685 12.6125L7.185 12.9875C7.30083 12.8333 7.41 12.6883 7.49167 12.5583C7.58969 12.409 7.6594 12.2433 7.69917 12.0692L7.0875 11.9433L6.475 11.8175C6.4775 11.8075 6.47833 11.8225 6.435 11.8917C6.35591 12.01 6.27252 12.1253 6.185 12.2375L6.685 12.6125ZM7.09583 11.6525L6.4775 11.7442C6.48028 11.7686 6.47944 11.7933 6.475 11.8175L7.0875 11.9433L7.69917 12.0692C7.73417 11.9025 7.73917 11.73 7.71417 11.5608L7.09583 11.6525ZM6.50167 15.9275L6.94333 16.3683C7.06917 16.2425 7.18667 16.1267 7.2775 16.0217C7.37333 15.9108 7.46917 15.7825 7.5375 15.62L6.96 15.38L6.38333 15.1383C6.38833 15.1283 6.38583 15.1417 6.33417 15.2008C6.24532 15.298 6.15361 15.3925 6.05917 15.4842L6.50167 15.9275ZM6.62167 14.2433L6.12167 14.6183C6.23833 14.7742 6.30667 14.8658 6.35333 14.9375C6.39583 15.0042 6.39583 15.0175 6.39333 15.0067L6.99833 14.85L7.60333 14.6925C7.56022 14.5383 7.4927 14.392 7.40333 14.2592C7.31367 14.1256 7.21973 13.9958 7.12167 13.8683L6.62167 14.2433ZM6.96 15.38L7.5375 15.62C7.66006 15.3263 7.68318 15.0006 7.60333 14.6925L6.99833 14.85L6.39333 15.0067C6.40455 15.0507 6.40104 15.0964 6.38333 15.1383L6.96 15.38ZM6.45833 10.1033H5.83333C5.83333 10.2708 5.82917 10.4533 5.87167 10.6342L6.48 10.4917L7.08833 10.3492L7.08583 10.3075C7.08361 10.2395 7.08278 10.1714 7.08333 10.1033H6.45833ZM6.70833 10.9283L7.22833 10.5817C7.18994 10.5252 7.15271 10.468 7.11667 10.41C7.0975 10.3783 7.095 10.3708 7.09667 10.3742L6.51083 10.5925L5.92583 10.8117C5.99 10.985 6.095 11.135 6.18833 11.275L6.70833 10.9283ZM6.48 10.4917L5.87167 10.6342C5.88611 10.6947 5.90417 10.7539 5.92583 10.8117L6.51083 10.5925L7.09667 10.3742L7.08833 10.3492L6.48 10.4917ZM6.45833 8.61167H5.83333V10.1033H7.08333V8.61167H6.45833ZM8.95833 4.79167H8.33333C8.33363 5.48105 8.13272 6.15553 7.75525 6.73239C7.37778 7.30926 6.84016 7.76341 6.20833 8.03917L6.45833 8.61167L6.70833 9.18417C7.56298 8.81117 8.29022 8.1969 8.8009 7.41667C9.31158 6.63645 9.5835 5.72416 9.58333 4.79167H8.95833ZM3.125 8.61167H2.5V15.28H3.75V8.61167H3.125ZM3.125 8.61167L3.375 8.03917C2.74317 7.76341 2.20555 7.30926 1.82808 6.73239C1.45061 6.15553 1.24971 5.48105 1.25 4.79167H7.8096e-08C-0.000168243 5.72416 0.271755 6.63645 0.782434 7.41667C1.29311 8.1969 2.02035 8.81117 2.875 9.18417L3.125 8.61167Z" fill="white"/>
<path d="M5 4.79167H4.79167M5.20833 4.79167C5.20833 4.90217 5.16443 5.00815 5.08629 5.08629C5.00815 5.16443 4.90217 5.20833 4.79167 5.20833C4.68116 5.20833 4.57518 5.16443 4.49704 5.08629C4.4189 5.00815 4.375 4.90217 4.375 4.79167C4.375 4.68116 4.4189 4.57518 4.49704 4.49704C4.57518 4.4189 4.68116 4.375 4.79167 4.375C4.90217 4.375 5.00815 4.4189 5.08629 4.49704C5.16443 4.57518 5.20833 4.68116 5.20833 4.79167Z" stroke="white" stroke-width="1.5" stroke-linecap="round" stroke-linejoin="round"/>
</svg>
