<svg width="17" height="16" viewBox="0 0 17 16" fill="none" xmlns="http://www.w3.org/2000/svg">
<path d="M14.7608 8.15284L8.51083 14.3428L2.26083 8.15284C1.84858 7.75168 1.52387 7.26952 1.30712 6.7367C1.09037 6.20389 0.986298 5.63196 1.00144 5.05695C1.01659 4.48194 1.15063 3.91629 1.39513 3.39562C1.63962 2.87495 1.98928 2.41055 2.42207 2.03166C2.85486 1.65276 3.36142 1.36758 3.90984 1.19407C4.45826 1.02057 5.03667 0.962493 5.60864 1.02351C6.18061 1.08452 6.73375 1.2633 7.23323 1.54859C7.73271 1.83389 8.1677 2.21951 8.51083 2.68117C8.85544 2.22286 9.29094 1.84061 9.79008 1.55834C10.2892 1.27608 10.8412 1.09988 11.4116 1.04077C11.982 0.981665 12.5584 1.04092 13.1048 1.21483C13.6512 1.38874 14.1559 1.67357 14.5871 2.05148C15.0184 2.42938 15.367 2.89224 15.6112 3.41108C15.8553 3.92992 15.9898 4.49358 16.0061 5.06676C16.0224 5.63995 15.9202 6.21033 15.7059 6.74221C15.4917 7.2741 15.1699 7.75602 14.7608 8.15784" stroke="white" stroke-width="2" stroke-linecap="round" stroke-linejoin="round"/>
<path d="M8.51062 2.67578L5.76645 5.41995C5.61022 5.57622 5.52246 5.78814 5.52246 6.00911C5.52246 6.23008 5.61022 6.44201 5.76645 6.59828L6.21895 7.05078C6.79395 7.62578 7.72728 7.62578 8.30228 7.05078L9.13562 6.21745C9.38173 5.97102 9.67401 5.77553 9.99574 5.64215C10.3175 5.50877 10.6623 5.44011 11.0106 5.44011C11.3589 5.44011 11.7038 5.50877 12.0255 5.64215C12.3472 5.77553 12.6395 5.97102 12.8856 6.21745L14.7606 8.09245M8.92728 10.5924L10.5939 12.2591M11.0106 8.50911L12.6773 10.1758" stroke="white" stroke-width="2" stroke-linecap="round" stroke-linejoin="round"/>
</svg>
