<svg width="14" height="17" viewBox="0 0 14 17" fill="none" xmlns="http://www.w3.org/2000/svg">
<path d="M7 16.5V15H12.5V14H9V8H12.5V7C12.5 5.44444 11.9636 4.13889 10.8909 3.08333C9.81815 2.02778 8.52301 1.5 7.00548 1.5C5.48794 1.5 4.19097 2.02778 3.11458 3.08333C2.03819 4.13889 1.5 5.44444 1.5 7V8H5V14H1.5C1.09722 13.9722 0.746528 13.8194 0.447917 13.5417C0.149306 13.2639 0 12.9167 0 12.5V7.00344C0 6.03499 0.184028 5.12217 0.552083 4.26498C0.920139 3.40777 1.42361 2.66319 2.0625 2.03125C2.70139 1.39931 3.44472 0.902778 4.29248 0.541667C5.14026 0.180556 6.04303 0 7.00081 0C7.9586 0 8.86458 0.180556 9.71875 0.541667C10.5729 0.902778 11.316 1.39931 11.9479 2.03125C12.5799 2.66319 13.0799 3.4074 13.4479 4.26388C13.816 5.12035 14 6.03239 14 7V15C14 15.4028 13.8531 15.7535 13.5594 16.0521C13.2656 16.3507 12.9125 16.5 12.5 16.5H7ZM1.5 12.5H3.5V9.5H1.5V12.5ZM10.5 12.5H12.5V9.5H10.5V12.5Z" fill="white"/>
</svg>
