<svg width="14" height="15" viewBox="0 0 14 15" fill="none" xmlns="http://www.w3.org/2000/svg">
<path d="M6.66667 0C8.50833 0 10 1.49167 10 3.33333C10 5.175 8.50833 6.66667 6.66667 6.66667C4.825 6.66667 3.33333 5.175 3.33333 3.33333C3.33333 1.49167 4.825 0 6.66667 0ZM10 8.78333C10 9.66667 9.76667 11.725 8.175 14.025L7.5 10L8.28333 8.43333C7.76667 8.375 7.225 8.33333 6.66667 8.33333C6.10833 8.33333 5.56667 8.375 5.05 8.43333L5.83333 10L5.15833 14.025C3.56667 11.725 3.33333 9.66667 3.33333 8.78333C1.34167 9.36667 0 10.4167 0 11.6667V15H13.3333V11.6667C13.3333 10.4167 12 9.36667 10 8.78333Z" fill="white"/>
</svg>
