<svg width="16" height="12" viewBox="0 0 16 12" fill="none" xmlns="http://www.w3.org/2000/svg">
<path d="M1.25 1C1.1837 1 1.12011 1.02634 1.07322 1.07322C1.02634 1.12011 1 1.1837 1 1.25V1.5C1 1.63261 0.947321 1.75979 0.853553 1.85355C0.759785 1.94732 0.632608 2 0.5 2C0.367392 2 0.240215 1.94732 0.146447 1.85355C0.0526785 1.75979 0 1.63261 0 1.5V1.25C0 0.56 0.56 0 1.25 0H1.5C1.63261 0 1.75979 0.0526785 1.85355 0.146447C1.94732 0.240215 2 0.367392 2 0.5C2 0.632608 1.94732 0.759785 1.85355 0.853553C1.75979 0.947321 1.63261 1 1.5 1H1.25ZM3 0.5C3 0.367392 3.05268 0.240215 3.14645 0.146447C3.24021 0.0526785 3.36739 0 3.5 0H4.5C4.63261 0 4.75979 0.0526785 4.85355 0.146447C4.94732 0.240215 5 0.367392 5 0.5C5 0.632608 4.94732 0.759785 4.85355 0.853553C4.75979 0.947321 4.63261 1 4.5 1H3.5C3.36739 1 3.24021 0.947321 3.14645 0.853553C3.05268 0.759785 3 0.632608 3 0.5ZM6 0.5C6 0.367392 6.05268 0.240215 6.14645 0.146447C6.24021 0.0526785 6.36739 0 6.5 0H6.75C7.44 0 8 0.56 8 1.25V1.5C8 1.63261 7.94732 1.75979 7.85355 1.85355C7.75979 1.94732 7.63261 2 7.5 2C7.36739 2 7.24021 1.94732 7.14645 1.85355C7.05268 1.75979 7 1.63261 7 1.5V1.25C7 1.1837 6.97366 1.12011 6.92678 1.07322C6.87989 1.02634 6.8163 1 6.75 1H6.5C6.36739 1 6.24021 0.947321 6.14645 0.853553C6.05268 0.759785 6 0.632608 6 0.5ZM12.854 1.854L12.701 2.006C13.6096 2.05926 14.4618 2.46439 15.0767 3.13546C15.6916 3.80652 16.0209 4.69074 15.9947 5.60055C15.9686 6.51036 15.5891 7.3742 14.9366 8.00884C14.2842 8.64349 13.4102 8.99901 12.5 9C12.3674 9 12.2402 8.94732 12.1464 8.85355C12.0527 8.75979 12 8.63261 12 8.5C12 8.36739 12.0527 8.24021 12.1464 8.14645C12.2402 8.05268 12.3674 8 12.5 8C13.1431 7.99813 13.7607 7.74853 14.2245 7.30308C14.6883 6.85763 14.9626 6.25059 14.9904 5.60813C15.0182 4.96566 14.7974 4.33719 14.3738 3.85332C13.9502 3.36946 13.3565 3.06743 12.716 3.01L12.854 3.146C12.9005 3.19249 12.9374 3.24768 12.9625 3.30842C12.9877 3.36916 13.0006 3.43426 13.0006 3.5C13.0006 3.56574 12.9877 3.63084 12.9625 3.69158C12.9374 3.75232 12.9005 3.80751 12.854 3.854C12.8075 3.90049 12.7523 3.93736 12.6916 3.96252C12.6308 3.98768 12.5657 4.00063 12.5 4.00063C12.4343 4.00063 12.3692 3.98768 12.3084 3.96252C12.2477 3.93736 12.1925 3.90049 12.146 3.854L11.146 2.854C11.0994 2.80755 11.0625 2.75238 11.0373 2.69163C11.0121 2.63089 10.9991 2.56577 10.9991 2.5C10.9991 2.43423 11.0121 2.36911 11.0373 2.30837C11.0625 2.24762 11.0994 2.19245 11.146 2.146L12.146 1.146C12.1925 1.09951 12.2477 1.06264 12.3084 1.03748C12.3692 1.01232 12.4343 0.999368 12.5 0.999368C12.5657 0.999368 12.6308 1.01232 12.6916 1.03748C12.7523 1.06264 12.8075 1.09951 12.854 1.146C12.9005 1.19249 12.9374 1.24768 12.9625 1.30842C12.9877 1.36916 13.0006 1.43426 13.0006 1.5C13.0006 1.56574 12.9877 1.63084 12.9625 1.69158C12.9374 1.75232 12.9005 1.80751 12.854 1.854ZM0 6.5C0 6.10218 0.158035 5.72064 0.43934 5.43934C0.720644 5.15804 1.10218 5 1.5 5H9.5C9.89782 5 10.2794 5.15804 10.5607 5.43934C10.842 5.72064 11 6.10218 11 6.5V10.5C11 10.8978 10.842 11.2794 10.5607 11.5607C10.2794 11.842 9.89782 12 9.5 12H1.5C1.10218 12 0.720644 11.842 0.43934 11.5607C0.158035 11.2794 0 10.8978 0 10.5V6.5ZM1.5 6C1.36739 6 1.24021 6.05268 1.14645 6.14645C1.05268 6.24021 1 6.36739 1 6.5V10.5C1 10.6326 1.05268 10.7598 1.14645 10.8536C1.24021 10.9473 1.36739 11 1.5 11H9.5C9.63261 11 9.75979 10.9473 9.85355 10.8536C9.94732 10.7598 10 10.6326 10 10.5V6.5C10 6.36739 9.94732 6.24021 9.85355 6.14645C9.75979 6.05268 9.63261 6 9.5 6H1.5ZM7.5 5C7.36739 5 7.24021 4.94732 7.14645 4.85355C7.05268 4.75979 7 4.63261 7 4.5V3.5C7 3.36739 7.05268 3.24021 7.14645 3.14645C7.24021 3.05268 7.36739 3 7.5 3C7.63261 3 7.75979 3.05268 7.85355 3.14645C7.94732 3.24021 8 3.36739 8 3.5V4.5C8 4.63261 7.94732 4.75979 7.85355 4.85355C7.75979 4.94732 7.63261 5 7.5 5ZM1 3.5C1 3.36739 0.947321 3.24021 0.853553 3.14645C0.759785 3.05268 0.632608 3 0.5 3C0.367392 3 0.240215 3.05268 0.146447 3.14645C0.0526785 3.24021 0 3.36739 0 3.5V4.5C0 4.63261 0.0526785 4.75979 0.146447 4.85355C0.240215 4.94732 0.367392 5 0.5 5C0.632608 5 0.759785 4.94732 0.853553 4.85355C0.947321 4.75979 1 4.63261 1 4.5V3.5Z" fill="white"/>
</svg>
