<svg width="20" height="20" viewBox="0 0 20 20" fill="none" xmlns="http://www.w3.org/2000/svg">
<path d="M15 2.5H5.83333C4.26167 2.5 3.47667 2.5 2.98833 2.98833C2.5 3.47667 2.5 4.26167 2.5 5.83333V17.5L5 16.6667L7.5 17.5L10 16.6667L12.5 17.5V7.5M15 2.5C14.337 2.5 13.7011 2.76339 13.2322 3.23223C12.7634 3.70107 12.5 4.33696 12.5 5V7.5M15 2.5C15.663 2.5 16.2989 2.76339 16.7678 3.23223C17.2366 3.70107 17.5 4.33696 17.5 5V6.78583C17.5 7.06417 17.5 7.20333 17.4358 7.305C17.4026 7.35787 17.3579 7.40258 17.305 7.43583C17.2033 7.5 17.0642 7.5 16.7858 7.5H12.5" stroke="white" stroke-width="2"/>
<path d="M5.8335 5.83398H9.16683M6.66683 9.16732H5.8335M5.8335 12.5007H8.3335" stroke="white" stroke-width="2" stroke-linecap="round"/>
</svg>
