<svg width="15" height="13" viewBox="0 0 15 13" fill="none" xmlns="http://www.w3.org/2000/svg">
<path d="M0 12V10C0 9.68056 0.0868056 9.37847 0.260417 9.09375C0.434028 8.80903 0.673611 8.56944 0.979167 8.375C1.74306 7.93056 2.55112 7.59028 3.40335 7.35417C4.25559 7.11806 5.12114 7 6 7C6.52332 7 7.03956 7.04167 7.54873 7.125C8.05791 7.20833 8.55556 7.32639 9.04167 7.47917L7.83333 8.6875C7.52778 8.61806 7.22485 8.56944 6.92456 8.54167C6.62429 8.51389 6.3161 8.5 6 8.5C5.23611 8.5 4.49306 8.59722 3.77083 8.79167C3.04861 8.98611 2.36806 9.27778 1.72917 9.66667C1.65972 9.72222 1.60417 9.77586 1.5625 9.82758C1.52083 9.87931 1.5 9.93678 1.5 10V10.5H6.5V12H0ZM8 13V10.6458L12.375 6.29167C12.4758 6.18872 12.5878 6.11438 12.711 6.06863C12.8342 6.02288 12.9567 6 13.0783 6C13.211 6 13.3382 6.02431 13.4599 6.07292C13.5815 6.12153 13.6921 6.19444 13.7917 6.29167L14.7083 7.22917C14.7998 7.32997 14.8713 7.44198 14.9228 7.56519C14.9743 7.6884 15 7.81083 15 7.93248C15 8.05415 14.9771 8.17857 14.9314 8.30575C14.8856 8.43293 14.8113 8.54629 14.7083 8.64583L10.3542 13H8ZM9 12H9.9375L12.3333 9.60417L11.875 9.125L11.4167 8.66667L9 11.0625V12ZM11.875 9.125L11.4167 8.66667L12.3333 9.60417L11.875 9.125ZM6 6C5.16667 6 4.45833 5.70833 3.875 5.125C3.29167 4.54167 3 3.83333 3 3C3 2.16667 3.29167 1.45833 3.875 0.875C4.45833 0.291667 5.16667 0 6 0C6.83333 0 7.54167 0.291667 8.125 0.875C8.70833 1.45833 9 2.16667 9 3C9 3.83333 8.70833 4.54167 8.125 5.125C7.54167 5.70833 6.83333 6 6 6ZM6.00442 4.5C6.41814 4.5 6.77083 4.35269 7.0625 4.05808C7.35417 3.76346 7.5 3.40929 7.5 2.99558C7.5 2.58186 7.35269 2.22917 7.05808 1.9375C6.76346 1.64583 6.40929 1.5 5.99558 1.5C5.58186 1.5 5.22917 1.64731 4.9375 1.94192C4.64583 2.23654 4.5 2.59071 4.5 3.00442C4.5 3.41814 4.64731 3.77083 4.94192 4.0625C5.23654 4.35417 5.59071 4.5 6.00442 4.5Z" fill="white"/>
</svg>
