<svg width="20" height="20" viewBox="0 0 20 20" fill="none" xmlns="http://www.w3.org/2000/svg">
<path d="M5.83317 1.66699H14.1665C14.6085 1.66699 15.0325 1.84259 15.345 2.15515C15.6576 2.46771 15.8332 2.89163 15.8332 3.33366V16.667C15.8332 17.109 15.6576 17.5329 15.345 17.8455C15.0325 18.1581 14.6085 18.3337 14.1665 18.3337H5.83317C5.39114 18.3337 4.96722 18.1581 4.65466 17.8455C4.3421 17.5329 4.1665 17.109 4.1665 16.667V3.33366C4.1665 2.89163 4.3421 2.46771 4.65466 2.15515C4.96722 1.84259 5.39114 1.66699 5.83317 1.66699ZM5.83317 3.33366V6.66699H14.1665V3.33366H5.83317ZM5.83317 8.33366V10.0003H7.49984V8.33366H5.83317ZM9.1665 8.33366V10.0003H10.8332V8.33366H9.1665ZM12.4998 8.33366V10.0003H14.1665V8.33366H12.4998ZM5.83317 11.667V13.3337H7.49984V11.667H5.83317ZM9.1665 11.667V13.3337H10.8332V11.667H9.1665ZM12.4998 11.667V13.3337H14.1665V11.667H12.4998ZM5.83317 15.0003V16.667H7.49984V15.0003H5.83317ZM9.1665 15.0003V16.667H10.8332V15.0003H9.1665ZM12.4998 15.0003V16.667H14.1665V15.0003H12.4998Z" fill="white"/>
</svg>
