<svg width="20" height="20" viewBox="0 0 20 20" fill="none" xmlns="http://www.w3.org/2000/svg">
<path d="M12.5 5H7.5C6.17392 5 4.90215 5.52678 3.96447 6.46447C3.02678 7.40215 2.5 8.67392 2.5 10C2.5 11.3261 3.02678 12.5979 3.96447 13.5355C4.90215 14.4732 6.17392 15 7.5 15H12.5C13.8261 15 15.0979 14.4732 16.0355 13.5355C16.9732 12.5979 17.5 11.3261 17.5 10C17.5 8.67392 16.9732 7.40215 16.0355 6.46447C15.0979 5.52678 13.8261 5 12.5 5Z" stroke="white" stroke-width="1.5" stroke-linecap="round" stroke-linejoin="round"/>
<path d="M12.5 12.5C13.8807 12.5 15 11.3807 15 10C15 8.61929 13.8807 7.5 12.5 7.5C11.1193 7.5 10 8.61929 10 10C10 11.3807 11.1193 12.5 12.5 12.5Z" fill="white" stroke="white" stroke-width="1.5"/>
</svg>
