<svg width="15" height="15" viewBox="0 0 15 15" fill="none" xmlns="http://www.w3.org/2000/svg">
<path d="M10.464 9.08832L10.0849 9.46582C10.0849 9.46582 9.18238 10.3625 6.71988 7.91415C4.25738 5.46582 5.15988 4.56915 5.15988 4.56915L5.39821 4.33082C5.98738 3.74582 6.04321 2.80582 5.52905 2.11915L4.47905 0.71665C3.84238 -0.13335 2.61321 -0.24585 1.88405 0.47915L0.575714 1.77915C0.21488 2.13915 -0.0267867 2.60415 0.00238 3.12082C0.07738 4.44332 0.675713 7.28748 4.01238 10.6058C7.55155 14.1242 10.8724 14.2641 12.2299 14.1375C12.6599 14.0975 13.0332 13.8792 13.334 13.5792L14.5174 12.4025C15.3174 11.6083 15.0924 10.2458 14.069 9.68998L12.4774 8.82415C11.8057 8.45998 10.989 8.56665 10.464 9.08832Z" fill="white"/>
</svg>
